<?xml version="1.0" standalone="no"?>
<!DOCTYPE svg PUBLIC "-//W3C//DTD SVG 20010904//EN"
 "http://www.w3.org/TR/2001/REC-SVG-20010904/DTD/svg10.dtd">
<svg version="1.0" xmlns="http://www.w3.org/2000/svg"
 width="844.000000pt" height="595.000000pt" viewBox="0 0 844.000000 595.000000"
 preserveAspectRatio="xMidYMid meet">

<g transform="translate(0.000000,595.000000) scale(0.100000,-0.100000)"
fill="#000000" stroke="none">
<path d="M4155 5268 c-357 -26 -722 -226 -940 -516 -80 -107 -186 -317 -219
-434 -63 -221 -74 -501 -25 -608 33 -70 99 -136 169 -169 74 -34 200 -36 273
-3 68 31 138 101 174 174 28 57 31 75 37 188 8 183 41 280 138 413 65 88 115
130 213 178 186 92 375 91 565 -2 162 -79 289 -237 334 -415 20 -79 20 -229 0
-307 -41 -159 -121 -265 -303 -399 -168 -125 -385 -339 -460 -453 -67 -103
-125 -223 -148 -305 -16 -58 -18 -113 -18 -500 l0 -435 27 -57 c92 -197 326
-264 510 -146 66 41 134 133 152 203 5 17 7 168 7 336 -2 347 5 406 64 526 51
104 157 235 286 354 62 57 158 148 213 201 87 85 102 96 115 84 9 -7 29 -18
45 -23 23 -7 33 -21 54 -73 l26 -64 -22 -14 c-39 -26 -27 -55 76 -181 53 -66
110 -136 126 -156 48 -61 120 -80 192 -50 l36 15 -7 -78 c-8 -86 -12 -99 -85
-327 -119 -372 -197 -729 -235 -1080 -21 -185 -23 -501 -5 -654 11 -99 17
-118 37 -139 18 -18 27 -42 34 -86 14 -98 17 -92 -57 -99 -93 -9 -146 -47
-160 -114 l-6 -33 -472 0 -471 0 58 24 c70 29 160 97 200 151 169 229 88 569
-165 693 -141 69 -317 62 -448 -16 -39 -23 -137 -132 -164 -183 -130 -237 -21
-541 231 -645 l58 -24 -2098 0 c-1396 0 -2096 -3 -2092 -10 4 -7 1420 -10
4215 -10 2795 0 4211 3 4215 10 4 7 -287 10 -864 10 l-871 0 0 75 c0 60 -3 75
-15 75 -12 0 -15 13 -15 59 0 57 1 58 33 67 43 13 44 29 17 296 -68 690 -160
1301 -239 1582 l-19 69 101 105 c56 58 123 126 150 150 73 69 85 151 32 222
-26 35 -345 340 -356 340 -4 0 -47 -63 -95 -140 -90 -142 -117 -167 -149 -140
-8 6 -36 76 -62 156 l-47 143 -26 -16 c-14 -9 -52 -44 -85 -77 -66 -67 -176
-146 -182 -131 -2 6 -34 60 -71 120 -46 74 -75 111 -89 113 -15 2 -34 32 -73
113 -29 61 -64 119 -77 129 l-24 19 24 38 c35 56 92 187 120 278 39 126 51
221 44 358 -11 203 -62 381 -158 552 -272 482 -736 732 -1284 693z m2359
-2623 c16 -24 15 -25 -31 -56 -25 -18 -44 -26 -41 -18 45 112 46 114 72 74z
m-417 -1047 c6 -7 92 -305 193 -663 100 -357 187 -656 192 -662 6 -7 21 -13
33 -13 17 0 24 -7 29 -31 11 -55 10 -56 -60 -62 -39 -4 -79 -15 -99 -27 -32
-20 -65 -72 -65 -104 0 -14 -31 -16 -285 -16 l-285 0 0 75 c0 60 -3 75 -15 75
-12 0 -15 15 -15 74 0 70 1 75 23 78 16 2 25 14 34 43 6 22 66 303 134 625 67
322 126 593 131 603 10 20 41 23 55 5z"/>
<path d="M6634 3901 c-18 -11 -38 -28 -45 -38 -11 -14 -27 -18 -67 -18 -47 0
-57 -4 -78 -28 l-24 -29 -58 20 c-31 11 -77 28 -102 37 -85 32 -187 9 -258
-59 -57 -53 -75 -100 -80 -203 l-4 -93 31 0 c25 0 32 -5 37 -27 30 -139 93
-210 206 -234 232 -50 434 149 374 371 -14 54 -14 55 12 86 15 17 32 39 38 50
11 18 14 18 54 4 71 -25 97 -67 125 -204 27 -132 43 -165 98 -209 31 -26 49
-32 101 -35 86 -6 156 31 192 100 23 44 19 59 -13 47 -36 -13 -89 -3 -131 24
-48 32 -85 98 -126 224 -40 120 -77 182 -129 213 -42 26 -112 26 -153 1z"/>
<path d="M1025 3048 c-43 -24 -44 -35 -45 -253 0 -236 3 -246 68 -265 40 -11
330 -14 381 -4 17 4 42 18 56 32 l25 25 0 209 0 210 -29 29 -29 29 -204 0
c-134 -1 -210 -5 -223 -12z m303 -170 c7 -7 12 -41 12 -83 0 -42 -5 -76 -12
-83 -7 -7 -41 -12 -83 -12 -42 0 -76 5 -83 12 -7 7 -12 41 -12 85 0 58 3 74
18 82 24 15 145 14 160 -1z"/>
<path d="M1707 3054 c-12 -12 -8 -332 4 -339 14 -9 134 -9 148 -1 6 4 11 36
11 75 0 85 9 94 104 101 l71 5 0 80 0 80 -166 3 c-91 1 -168 -1 -172 -4z"/>
<path d="M2269 3031 l-29 -29 0 -206 0 -206 29 -32 29 -33 184 -3 c297 -5 298
-5 298 269 0 103 -5 189 -11 208 -19 55 -45 61 -269 61 l-202 0 -29 -29z m319
-153 c14 -14 16 -146 3 -166 -5 -9 -30 -12 -87 -10 l-79 3 -5 79 c-4 58 -1 83
8 93 17 17 143 18 160 1z"/>
<path d="M1887 2694 c-4 -4 -7 -37 -7 -74 0 -87 -12 -98 -105 -102 l-70 -3 -3
-75 c-2 -62 0 -77 14 -87 25 -18 293 -18 317 0 16 11 17 31 15 177 l-3 165
-75 3 c-42 1 -79 0 -83 -4z"/>
<path d="M990 2325 c-20 -24 -14 -137 7 -152 23 -18 104 -16 131 3 19 13 22
24 22 78 0 35 -5 67 -12 74 -18 18 -133 16 -148 -3z"/>
<path d="M1352 2328 c-7 -7 -12 -40 -12 -80 0 -80 9 -88 94 -88 70 0 86 -19
86 -102 0 -67 12 -78 85 -78 86 0 85 -1 85 178 0 110 -4 162 -12 170 -8 8 -59
12 -163 12 -104 0 -155 -4 -163 -12z"/>
<path d="M2252 2328 c-7 -7 -12 -39 -12 -73 0 -79 15 -95 92 -95 72 0 88 -17
88 -93 0 -85 5 -87 176 -87 173 0 184 5 184 93 0 70 -18 87 -89 87 -80 0 -91
10 -91 78 0 100 -4 102 -184 102 -105 0 -156 -4 -164 -12z"/>
<path d="M1172 2148 c-7 -7 -12 -40 -12 -80 0 -79 9 -88 89 -88 68 0 81 15 81
94 0 35 -5 67 -12 74 -7 7 -39 12 -73 12 -34 0 -66 -5 -73 -12z"/>
<path d="M1892 2148 c-7 -7 -12 -39 -12 -74 0 -92 3 -94 171 -94 78 0 149 5
160 10 16 9 19 22 19 78 0 40 -5 73 -12 80 -8 8 -59 12 -163 12 -104 0 -155
-4 -163 -12z"/>
<path d="M992 1788 c-7 -7 -12 -40 -12 -78 0 -38 5 -71 12 -78 15 -15 291 -17
319 -2 16 9 19 22 19 80 0 58 -3 71 -19 80 -28 15 -304 13 -319 -2z"/>
<path d="M1532 1788 c-7 -7 -12 -40 -12 -80 0 -78 9 -88 85 -88 76 0 85 10 85
90 0 58 -3 71 -19 80 -27 14 -124 13 -139 -2z"/>
<path d="M1898 1789 c-14 -8 -18 -24 -18 -79 0 -81 9 -90 89 -90 68 0 91 22
91 88 0 73 -19 92 -88 92 -31 0 -65 -5 -74 -11z"/>
<path d="M2288 1785 c-15 -9 -32 -24 -38 -35 -6 -11 -10 -102 -10 -222 0 -222
3 -234 58 -257 20 -9 89 -11 225 -9 l197 3 27 28 28 27 0 210 0 210 -28 27
-27 28 -203 2 c-165 2 -207 0 -229 -12z m307 -255 l0 -85 -78 -3 c-45 -2 -84
2 -91 8 -14 11 -16 136 -2 158 5 9 31 12 89 10 l82 -3 0 -85z"/>
<path d="M1358 1609 c-14 -8 -18 -24 -18 -77 0 -40 5 -73 12 -80 15 -15 112
-16 139 -2 16 9 19 22 19 80 0 58 -3 71 -19 80 -25 13 -111 13 -133 -1z"/>
<path d="M1718 1609 c-14 -8 -18 -23 -18 -67 0 -83 -16 -102 -86 -102 -85 0
-94 -8 -94 -88 0 -40 5 -73 12 -80 17 -17 489 -17 506 0 7 7 12 40 12 80 0 80
-9 88 -94 88 -70 0 -86 19 -86 102 0 46 -4 59 -19 68 -25 13 -111 13 -133 -1z"/>
<path d="M995 1426 c-17 -12 -19 -24 -17 -77 2 -35 8 -69 14 -76 13 -16 111
-17 139 -3 16 9 19 22 19 75 0 44 -5 68 -16 79 -20 20 -113 21 -139 2z"/>
<path d="M1833 729 c-63 -31 -88 -78 -87 -164 0 -45 6 -81 17 -102 52 -99 195
-120 273 -40 44 44 51 73 22 81 -42 11 -59 6 -85 -24 -27 -33 -58 -38 -88 -16
-15 11 -20 30 -23 84 -4 76 6 108 41 121 28 11 55 -3 68 -36 6 -17 14 -23 25
-19 9 3 29 6 45 6 33 0 37 15 14 59 -18 36 -88 71 -141 71 -21 0 -58 -9 -81
-21z"/>
<path d="M2130 742 c-12 -6 -16 -39 -19 -184 l-4 -178 52 0 51 0 0 180 c0 137
-3 180 -12 180 -7 0 -22 2 -33 5 -11 2 -27 1 -35 -3z"/>
<path d="M2563 743 c-10 -3 -13 -50 -13 -184 l0 -179 34 0 c21 0 36 6 40 15 4
12 11 12 41 -6 94 -56 188 47 156 168 -16 58 -50 86 -98 81 -21 -3 -46 -8 -55
-12 -16 -7 -18 -2 -18 52 0 53 -2 60 -22 66 -26 7 -48 7 -65 -1z m151 -175
c29 -42 14 -138 -22 -138 -31 0 -42 22 -42 82 0 44 4 59 18 67 24 15 29 14 46
-11z"/>
<path d="M2980 744 c-9 -3 -38 -69 -74 -172 -32 -92 -61 -173 -64 -180 -3 -10
4 -13 29 -10 l33 3 62 175 c42 121 58 177 50 182 -12 8 -12 8 -36 2z"/>
<path d="M3060 641 l0 -39 65 -22 c36 -12 65 -25 65 -30 0 -5 -29 -18 -65 -30
l-65 -22 0 -39 c0 -47 -11 -48 148 13 l102 40 0 38 0 39 -102 39 c-159 61
-148 60 -148 13z"/>
<path d="M2254 625 c-3 -8 -4 -59 -2 -114 2 -79 7 -104 21 -118 23 -23 89 -23
114 0 24 21 37 22 29 2 -4 -12 4 -15 44 -15 l50 0 0 131 0 130 -47 -3 -46 -3
2 -77 c3 -88 -9 -121 -42 -116 -21 3 -22 9 -25 101 l-3 97 -45 0 c-30 0 -46
-5 -50 -15z"/>
</g>
</svg>
